<svg id="Layer_1" data-name="Layer 1" xmlns="http://www.w3.org/2000/svg" viewBox="0 0 50.4 47.31"><title>H</title><path d="M13.3,8.47V4.6H36V8.47L25.51,9.55H23.39ZM25.51,47,36,48v3.87H13.3V48L23.39,47Zm-6.77-20c0-7.41,0-14.9-.21-22.32H31.05c-.22,7.27-.22,14.76-.22,22.32v2.21c0,7.87,0,15.36.22,22.78H18.53c.21-7.27.21-14.76.21-22.32Zm6.05,2.78V25.5H52.22v4.2ZM41,8.47V4.6H63.71V8.47L53.36,9.55h-2ZM53.36,47,63.71,48v3.87H41V48L51.35,47Zm-7.18-20c0-7.41,0-14.9-.22-22.32H58.49c-.22,7.27-.22,14.76-.22,22.32v2.67c0,7.41,0,14.9.22,22.32H46c.22-7.27.22-14.76.22-22.78Z" transform="translate(-13.3 -4.6)"/></svg>